<mxfile modified="2022-05-20T02:26:11.573Z" host="app.diagrams.net" agent="5.0 (Windows NT 10.0; Win64; x64) AppleWebKit/537.36 (KHTML, like Gecko) Chrome/101.0.4951.54 Safari/537.36" etag="3WEFcwm-nQqpvzNb4w71" compressed="false" version="18.0.8" type="google">
  <diagram name="Integration/System Logical Module/API/Resource URLs/Tenancies" id="PoN3Tv-k3saIw6w0Rttg">
    <mxGraphModel grid="1" page="1" gridSize="10" guides="1" tooltips="1" connect="1" arrows="1" fold="1" pageScale="1" pageWidth="850" pageHeight="1100" math="0" shadow="0">
      <root>
        <mxCell id="_26Is6igs60ySEspcBSc-0" />
        <mxCell id="XjMKO7mXyI-uBreeRKWt-0" value="Diagram" parent="_26Is6igs60ySEspcBSc-0" />
        <mxCell id="_26Is6igs60ySEspcBSc-27" value="List Tenants" style="text;html=1;strokeColor=none;fillColor=none;align=left;verticalAlign=middle;whiteSpace=wrap;rounded=0;dashed=1;fontFamily=Helvetica;fontSize=12;" vertex="1" parent="XjMKO7mXyI-uBreeRKWt-0">
          <mxGeometry x="400" y="300" width="320" height="20" as="geometry" />
        </mxCell>
        <mxCell id="_26Is6igs60ySEspcBSc-28" value="Tenants" style="text;html=1;strokeColor=none;fillColor=none;align=left;verticalAlign=middle;whiteSpace=wrap;rounded=0;dashed=1;fontSize=12;fontFamily=Courier New;" vertex="1" parent="XjMKO7mXyI-uBreeRKWt-0">
          <mxGeometry x="160" y="300" width="200" height="20" as="geometry" />
        </mxCell>
        <mxCell id="_26Is6igs60ySEspcBSc-29" value="Tenants(&#39;{uuid}&#39;)" style="text;html=1;strokeColor=none;fillColor=none;align=left;verticalAlign=middle;whiteSpace=wrap;rounded=0;dashed=1;fontSize=12;fontFamily=Courier New;" vertex="1" parent="XjMKO7mXyI-uBreeRKWt-0">
          <mxGeometry x="160" y="400" width="200" height="20" as="geometry" />
        </mxCell>
        <mxCell id="_26Is6igs60ySEspcBSc-30" value="View Tenant {uuid}" style="text;html=1;strokeColor=none;fillColor=none;align=left;verticalAlign=middle;whiteSpace=wrap;rounded=0;dashed=1;fontFamily=Helvetica;fontSize=12;" vertex="1" parent="XjMKO7mXyI-uBreeRKWt-0">
          <mxGeometry x="400" y="400" width="320" height="20" as="geometry" />
        </mxCell>
        <mxCell id="_26Is6igs60ySEspcBSc-31" value="GET" style="text;html=1;strokeColor=none;fillColor=none;align=left;verticalAlign=middle;whiteSpace=wrap;rounded=0;dashed=1;fontSize=12;fontFamily=Courier New;" vertex="1" parent="XjMKO7mXyI-uBreeRKWt-0">
          <mxGeometry x="120" y="300" width="40" height="20" as="geometry" />
        </mxCell>
        <mxCell id="_26Is6igs60ySEspcBSc-32" value="GET" style="text;html=1;strokeColor=none;fillColor=none;align=left;verticalAlign=middle;whiteSpace=wrap;rounded=0;dashed=1;fontSize=12;fontFamily=Courier New;" vertex="1" parent="XjMKO7mXyI-uBreeRKWt-0">
          <mxGeometry x="120" y="400" width="40" height="20" as="geometry" />
        </mxCell>
        <mxCell id="_26Is6igs60ySEspcBSc-33" value="POST" style="text;html=1;strokeColor=none;fillColor=none;align=left;verticalAlign=middle;whiteSpace=wrap;rounded=0;dashed=1;fontSize=12;fontFamily=Courier New;" vertex="1" parent="XjMKO7mXyI-uBreeRKWt-0">
          <mxGeometry x="120" y="440" width="40" height="20" as="geometry" />
        </mxCell>
        <mxCell id="_26Is6igs60ySEspcBSc-34" value="Tenants" style="text;html=1;strokeColor=none;fillColor=none;align=left;verticalAlign=middle;whiteSpace=wrap;rounded=0;dashed=1;fontSize=12;fontFamily=Courier New;" vertex="1" parent="XjMKO7mXyI-uBreeRKWt-0">
          <mxGeometry x="160" y="440" width="200" height="20" as="geometry" />
        </mxCell>
        <mxCell id="_26Is6igs60ySEspcBSc-35" value="POST" style="text;html=1;strokeColor=none;fillColor=none;align=left;verticalAlign=middle;whiteSpace=wrap;rounded=0;dashed=1;fontSize=12;fontFamily=Courier New;" vertex="1" parent="XjMKO7mXyI-uBreeRKWt-0">
          <mxGeometry x="120" y="460" width="40" height="20" as="geometry" />
        </mxCell>
        <mxCell id="_26Is6igs60ySEspcBSc-36" value="Tenants(&#39;{uuid}&#39;)" style="text;html=1;strokeColor=none;fillColor=none;align=left;verticalAlign=middle;whiteSpace=wrap;rounded=0;dashed=1;fontSize=12;fontFamily=Courier New;" vertex="1" parent="XjMKO7mXyI-uBreeRKWt-0">
          <mxGeometry x="160" y="460" width="200" height="20" as="geometry" />
        </mxCell>
        <mxCell id="_26Is6igs60ySEspcBSc-37" value="&lt;font style=&quot;font-size: 11px&quot;&gt;Create&amp;nbsp;&lt;span style=&quot;font-size: 12px&quot;&gt;Tenants&lt;/span&gt;, server side generated Id. &lt;b&gt;&lt;font color=&quot;#cc0000&quot; style=&quot;font-size: 11px&quot;&gt;&lt;u&gt;NOT&lt;/u&gt;&lt;/font&gt; &lt;/b&gt;recommended.&lt;/font&gt;" style="text;html=1;strokeColor=none;fillColor=none;align=left;verticalAlign=middle;whiteSpace=wrap;rounded=0;dashed=1;fontFamily=Helvetica;fontSize=12;" vertex="1" parent="XjMKO7mXyI-uBreeRKWt-0">
          <mxGeometry x="400" y="440" width="320" height="20" as="geometry" />
        </mxCell>
        <mxCell id="_26Is6igs60ySEspcBSc-38" value="&lt;font style=&quot;font-size: 11px&quot;&gt;Create&amp;nbsp;&lt;span style=&quot;font-size: 12px&quot;&gt;Tenants&lt;/span&gt;, client side generated UUID. &lt;b&gt;&lt;font color=&quot;#009900&quot; style=&quot;font-size: 11px&quot;&gt;RECOMMNEDED&lt;/font&gt;&lt;/b&gt;.&lt;/font&gt;" style="text;html=1;strokeColor=none;fillColor=none;align=left;verticalAlign=middle;whiteSpace=wrap;rounded=0;dashed=1;fontFamily=Helvetica;fontSize=12;" vertex="1" parent="XjMKO7mXyI-uBreeRKWt-0">
          <mxGeometry x="400" y="460" width="320" height="20" as="geometry" />
        </mxCell>
        <mxCell id="_26Is6igs60ySEspcBSc-39" value="PUT" style="text;html=1;strokeColor=none;fillColor=none;align=left;verticalAlign=middle;whiteSpace=wrap;rounded=0;dashed=1;fontSize=12;fontFamily=Courier New;" vertex="1" parent="XjMKO7mXyI-uBreeRKWt-0">
          <mxGeometry x="120" y="420" width="40" height="20" as="geometry" />
        </mxCell>
        <mxCell id="_26Is6igs60ySEspcBSc-40" value="Tenants(&#39;{uuid}&#39;)" style="text;html=1;strokeColor=none;fillColor=none;align=left;verticalAlign=middle;whiteSpace=wrap;rounded=0;dashed=1;fontSize=12;fontFamily=Courier New;" vertex="1" parent="XjMKO7mXyI-uBreeRKWt-0">
          <mxGeometry x="160" y="420" width="200" height="20" as="geometry" />
        </mxCell>
        <mxCell id="_26Is6igs60ySEspcBSc-41" value="Create Tenants, client side generated UUID." style="text;html=1;strokeColor=none;fillColor=none;align=left;verticalAlign=middle;whiteSpace=wrap;rounded=0;dashed=1;fontFamily=Helvetica;fontSize=12;" vertex="1" parent="XjMKO7mXyI-uBreeRKWt-0">
          <mxGeometry x="400" y="420" width="320" height="20" as="geometry" />
        </mxCell>
        <mxCell id="_26Is6igs60ySEspcBSc-42" value="DELETE" style="text;html=1;strokeColor=none;fillColor=none;align=left;verticalAlign=middle;whiteSpace=wrap;rounded=0;dashed=1;fontSize=10;fontFamily=Courier New;" vertex="1" parent="XjMKO7mXyI-uBreeRKWt-0">
          <mxGeometry x="120" y="480" width="40" height="20" as="geometry" />
        </mxCell>
        <mxCell id="_26Is6igs60ySEspcBSc-43" value="Tenants(&#39;{uuid}&#39;)" style="text;html=1;strokeColor=none;fillColor=none;align=left;verticalAlign=middle;whiteSpace=wrap;rounded=0;dashed=1;fontSize=12;fontFamily=Courier New;" vertex="1" parent="XjMKO7mXyI-uBreeRKWt-0">
          <mxGeometry x="160" y="480" width="200" height="20" as="geometry" />
        </mxCell>
        <mxCell id="_26Is6igs60ySEspcBSc-44" value="Delete Tenants {uuid}" style="text;html=1;strokeColor=none;fillColor=none;align=left;verticalAlign=middle;whiteSpace=wrap;rounded=0;dashed=1;fontFamily=Helvetica;fontSize=12;" vertex="1" parent="XjMKO7mXyI-uBreeRKWt-0">
          <mxGeometry x="400" y="480" width="320" height="20" as="geometry" />
        </mxCell>
        <mxCell id="_26Is6igs60ySEspcBSc-46" value="&lt;font style=&quot;font-size: 11px&quot;&gt;List&amp;nbsp;&lt;span style=&quot;font-size: 12px&quot;&gt;Tenants&lt;/span&gt;, page 3, using ODATA standard filter arguments.&lt;/font&gt;" style="text;html=1;strokeColor=none;fillColor=none;align=left;verticalAlign=middle;whiteSpace=wrap;rounded=0;dashed=1;fontFamily=Helvetica;fontSize=12;" vertex="1" parent="XjMKO7mXyI-uBreeRKWt-0">
          <mxGeometry x="400" y="340" width="320" height="20" as="geometry" />
        </mxCell>
        <mxCell id="_26Is6igs60ySEspcBSc-47" value="&lt;font style=&quot;font-size: 10px&quot;&gt;&lt;span style=&quot;font-size: 12px&quot;&gt;Tenants&lt;/span&gt;?$top=80&amp;amp;$skip=60&lt;/font&gt;" style="text;html=1;strokeColor=none;fillColor=none;align=left;verticalAlign=middle;whiteSpace=wrap;rounded=0;dashed=1;fontSize=12;fontFamily=Courier New;" vertex="1" parent="XjMKO7mXyI-uBreeRKWt-0">
          <mxGeometry x="160" y="340" width="200" height="20" as="geometry" />
        </mxCell>
        <mxCell id="_26Is6igs60ySEspcBSc-48" value="GET" style="text;html=1;strokeColor=none;fillColor=none;align=left;verticalAlign=middle;whiteSpace=wrap;rounded=0;dashed=1;fontSize=12;fontFamily=Courier New;" vertex="1" parent="XjMKO7mXyI-uBreeRKWt-0">
          <mxGeometry x="120" y="340" width="40" height="20" as="geometry" />
        </mxCell>
        <mxCell id="_26Is6igs60ySEspcBSc-49" value="Count Tenants, using ODATA standard filter arguments." style="text;html=1;strokeColor=none;fillColor=none;align=left;verticalAlign=middle;whiteSpace=wrap;rounded=0;dashed=1;fontFamily=Helvetica;fontSize=12;" vertex="1" parent="XjMKO7mXyI-uBreeRKWt-0">
          <mxGeometry x="400" y="320" width="320" height="20" as="geometry" />
        </mxCell>
        <mxCell id="_26Is6igs60ySEspcBSc-50" value="Tenants?$count=true" style="text;html=1;strokeColor=none;fillColor=none;align=left;verticalAlign=middle;whiteSpace=wrap;rounded=0;dashed=1;fontSize=12;fontFamily=Courier New;" vertex="1" parent="XjMKO7mXyI-uBreeRKWt-0">
          <mxGeometry x="160" y="320" width="200" height="20" as="geometry" />
        </mxCell>
        <mxCell id="_26Is6igs60ySEspcBSc-51" value="GET" style="text;html=1;strokeColor=none;fillColor=none;align=left;verticalAlign=middle;whiteSpace=wrap;rounded=0;dashed=1;fontSize=12;fontFamily=Courier New;" vertex="1" parent="XjMKO7mXyI-uBreeRKWt-0">
          <mxGeometry x="120" y="320" width="40" height="20" as="geometry" />
        </mxCell>
        <mxCell id="_26Is6igs60ySEspcBSc-55" value="GET" style="text;html=1;strokeColor=none;fillColor=none;align=left;verticalAlign=middle;whiteSpace=wrap;rounded=0;dashed=1;fontSize=12;fontFamily=Courier New;" vertex="1" parent="XjMKO7mXyI-uBreeRKWt-0">
          <mxGeometry x="120" y="360" width="40" height="20" as="geometry" />
        </mxCell>
        <mxCell id="_26Is6igs60ySEspcBSc-56" value="Tenants?$search=xyz" style="text;html=1;strokeColor=none;fillColor=none;align=left;verticalAlign=middle;whiteSpace=wrap;rounded=0;dashed=1;fontSize=12;fontFamily=Courier New;" vertex="1" parent="XjMKO7mXyI-uBreeRKWt-0">
          <mxGeometry x="160" y="360" width="200" height="20" as="geometry" />
        </mxCell>
        <mxCell id="_26Is6igs60ySEspcBSc-57" value="List Tenants that meet custom search criteria." style="text;html=1;strokeColor=none;fillColor=none;align=left;verticalAlign=middle;whiteSpace=wrap;rounded=0;dashed=1;fontFamily=Helvetica;fontSize=12;" vertex="1" parent="XjMKO7mXyI-uBreeRKWt-0">
          <mxGeometry x="400" y="360" width="320" height="20" as="geometry" />
        </mxCell>
        <mxCell id="_26Is6igs60ySEspcBSc-58" value="Description" style="text;html=1;strokeColor=none;fillColor=#f5f5f5;align=left;verticalAlign=middle;whiteSpace=wrap;rounded=0;fontSize=12;fontFamily=Helvetica;fontColor=#333333;fontStyle=0" vertex="1" parent="XjMKO7mXyI-uBreeRKWt-0">
          <mxGeometry x="400" y="200" width="320" height="20" as="geometry" />
        </mxCell>
        <mxCell id="_26Is6igs60ySEspcBSc-59" value="URL" style="text;html=1;strokeColor=none;fillColor=#f5f5f5;align=left;verticalAlign=middle;whiteSpace=wrap;rounded=0;fontSize=12;fontFamily=Helvetica;fontColor=#333333;fontStyle=0" vertex="1" parent="XjMKO7mXyI-uBreeRKWt-0">
          <mxGeometry x="160" y="200" width="230" height="20" as="geometry" />
        </mxCell>
        <mxCell id="_26Is6igs60ySEspcBSc-60" value="&lt;font style=&quot;font-size: 10px;&quot;&gt;VERB&lt;/font&gt;" style="text;html=1;strokeColor=none;fillColor=#f5f5f5;align=left;verticalAlign=middle;whiteSpace=wrap;rounded=0;fontSize=10;fontFamily=Helvetica;fontColor=#333333;fontStyle=0" vertex="1" parent="XjMKO7mXyI-uBreeRKWt-0">
          <mxGeometry x="120" y="200" width="30" height="20" as="geometry" />
        </mxCell>
        <mxCell id="_26Is6igs60ySEspcBSc-61" value="&lt;font style=&quot;font-size: 9px&quot;&gt;&lt;span style=&quot;font-size: 10px&quot;&gt;SummaryItems&lt;/span&gt;?$search=Organisation,abc:xyz&lt;/font&gt;" style="text;html=1;strokeColor=none;fillColor=none;align=left;verticalAlign=middle;whiteSpace=wrap;rounded=0;dashed=1;fontSize=9;fontFamily=Courier New;" vertex="1" parent="XjMKO7mXyI-uBreeRKWt-0">
          <mxGeometry x="160" y="260" width="250" height="20" as="geometry" />
        </mxCell>
        <mxCell id="_26Is6igs60ySEspcBSc-62" value="GET" style="text;html=1;strokeColor=none;fillColor=none;align=left;verticalAlign=middle;whiteSpace=wrap;rounded=0;dashed=1;fontSize=12;fontFamily=Courier New;" vertex="1" parent="XjMKO7mXyI-uBreeRKWt-0">
          <mxGeometry x="120" y="260" width="40" height="20" as="geometry" />
        </mxCell>
        <mxCell id="_26Is6igs60ySEspcBSc-63" value="&lt;font style=&quot;font-size: 10px&quot;&gt;SummaryItems?$search=Organisation:xyz&lt;/font&gt;" style="text;html=1;strokeColor=none;fillColor=none;align=left;verticalAlign=middle;whiteSpace=wrap;rounded=0;dashed=1;fontSize=10;fontFamily=Courier New;" vertex="1" parent="XjMKO7mXyI-uBreeRKWt-0">
          <mxGeometry x="160" y="240" width="240" height="20" as="geometry" />
        </mxCell>
        <mxCell id="_26Is6igs60ySEspcBSc-64" value="GET" style="text;html=1;strokeColor=none;fillColor=none;align=left;verticalAlign=middle;whiteSpace=wrap;rounded=0;dashed=1;fontSize=12;fontFamily=Courier New;" vertex="1" parent="XjMKO7mXyI-uBreeRKWt-0">
          <mxGeometry x="120" y="240" width="40" height="20" as="geometry" />
        </mxCell>
        <mxCell id="_26Is6igs60ySEspcBSc-65" value="List SummaryItems of type Tenant custom matching xyz" style="text;html=1;strokeColor=none;fillColor=none;align=left;verticalAlign=middle;whiteSpace=wrap;rounded=0;dashed=1;fontFamily=Helvetica;fontSize=12;" vertex="1" parent="XjMKO7mXyI-uBreeRKWt-0">
          <mxGeometry x="400" y="240" width="320" height="20" as="geometry" />
        </mxCell>
        <mxCell id="_26Is6igs60ySEspcBSc-66" value="List SummaryItems&amp;nbsp;of type Tenant &amp;amp; abc matching xyz" style="text;html=1;strokeColor=none;fillColor=none;align=left;verticalAlign=middle;whiteSpace=wrap;rounded=0;dashed=1;fontFamily=Helvetica;fontSize=12;" vertex="1" parent="XjMKO7mXyI-uBreeRKWt-0">
          <mxGeometry x="400" y="260" width="320" height="20" as="geometry" />
        </mxCell>
        <mxCell id="_26Is6igs60ySEspcBSc-1" value="Context/Legend" parent="_26Is6igs60ySEspcBSc-0" />
        <mxCell id="XjMKO7mXyI-uBreeRKWt-1" value="Title/Diagram" parent="_26Is6igs60ySEspcBSc-0" />
        <mxCell id="_26Is6igs60ySEspcBSc-76" value="&lt;font style=&quot;font-size: 12px ; font-weight: normal&quot;&gt;&lt;i&gt;Diagram: Base&amp;nbsp;&lt;/i&gt;&lt;i&gt;System&amp;nbsp;&lt;/i&gt;&lt;i&gt;Logical Module -&amp;nbsp;&lt;/i&gt;&lt;i&gt;Interoperability&amp;nbsp;&lt;/i&gt;&lt;i&gt;&amp;nbsp;- APIs - Tenancies&lt;/i&gt;&lt;/font&gt;" style="text;strokeColor=none;fillColor=none;html=1;fontSize=12;fontStyle=1;verticalAlign=middle;align=left;shadow=0;glass=0;comic=0;opacity=30;fontColor=#808080;" vertex="1" parent="XjMKO7mXyI-uBreeRKWt-1">
          <mxGeometry x="120" y="520" width="520" height="20" as="geometry" />
        </mxCell>
        <mxCell id="XjMKO7mXyI-uBreeRKWt-2" value="Title/Page" visible="0" parent="_26Is6igs60ySEspcBSc-0" />
        <mxCell id="_26Is6igs60ySEspcBSc-77" value="" style="group;fontSize=12;" vertex="1" connectable="0" parent="XjMKO7mXyI-uBreeRKWt-2">
          <mxGeometry x="120" y="120" width="600" height="45" as="geometry" />
        </mxCell>
        <mxCell id="_26Is6igs60ySEspcBSc-78" value="&lt;font style=&quot;font-size: 12px&quot;&gt;Base Logical Module - Interoperability&amp;nbsp;- APIs - Tenancies&lt;/font&gt;" style="text;strokeColor=none;fillColor=none;html=1;fontSize=12;fontStyle=1;verticalAlign=middle;align=left;shadow=0;glass=0;comic=0;opacity=30;fontColor=#808080;" vertex="1" parent="_26Is6igs60ySEspcBSc-77">
          <mxGeometry y="20" width="600" height="20" as="geometry" />
        </mxCell>
        <mxCell id="_26Is6igs60ySEspcBSc-79" value="" style="line;strokeWidth=2;html=1;shadow=0;glass=0;comic=0;fillColor=none;fontSize=10;fontColor=#CCCCCC;labelBackgroundColor=none;strokeColor=#CCCCCC;" vertex="1" parent="_26Is6igs60ySEspcBSc-77">
          <mxGeometry y="35" width="600" height="10" as="geometry" />
        </mxCell>
        <mxCell id="XjMKO7mXyI-uBreeRKWt-3" value="About" parent="_26Is6igs60ySEspcBSc-0" />
      </root>
    </mxGraphModel>
  </diagram>
</mxfile>
